<?xml version="1.0" encoding="utf-8"?>
<!-- Generator: Adobe Illustrator 27.7.0, SVG Export Plug-In . SVG Version: 6.00 Build 0)  -->
<svg version="1.1" id="Capa_1" xmlns="http://www.w3.org/2000/svg" xmlns:xlink="http://www.w3.org/1999/xlink" x="0px" y="0px"
	 viewBox="0 0 218.8 145.9" style="enable-background:new 0 0 218.8 145.9;" xml:space="preserve">
<style type="text/css">
	.st0{fill:#505454;}
</style>
<g>
	<path class="st0" d="M70.3,142.3c0.2,0,0.4,0.1,0.6,0.2v0.3h-2.2v-0.3c0.1-0.1,0.2-0.1,0.2-0.1s0.2-0.1,0.3-0.1V138
		c-0.1,0-0.2-0.1-0.3-0.1c-0.1,0-0.2-0.1-0.2-0.1v-0.3h3.7c0,0.1,0,0.2,0,0.3c0,0.1,0,0.2,0,0.4c0,0.1,0,0.2,0,0.4
		c0,0.1,0,0.2-0.1,0.3H72l-0.3-0.9h-1.4v2h1l0.3-0.5h0.2c0,0.3,0.1,0.5,0,0.8c0,0.3,0,0.5,0,0.8h-0.2l-0.3-0.5h-1L70.3,142.3
		L70.3,142.3z"/>
	<path class="st0" d="M77.9,137.5h2.2v0.3c-0.2,0.1-0.3,0.2-0.5,0.2v3c0,0.2,0,0.5,0.1,0.6c0.1,0.2,0.1,0.3,0.2,0.4
		c0.1,0.1,0.2,0.2,0.3,0.2c0.1,0.1,0.3,0.1,0.5,0.1c0.2,0,0.3,0,0.4-0.1s0.2-0.1,0.3-0.2c0.1-0.1,0.2-0.2,0.2-0.4s0.1-0.4,0.1-0.6
		V138c-0.1,0-0.2-0.1-0.3-0.1c-0.1-0.1-0.2-0.1-0.3-0.1v-0.3h1.7v0.3c-0.1,0.1-0.2,0.1-0.3,0.2s-0.2,0.1-0.3,0.1v2.9
		c0,0.7-0.2,1.2-0.5,1.5s-0.8,0.5-1.3,0.5c-0.6,0-1.1-0.1-1.4-0.5c-0.3-0.3-0.5-0.8-0.5-1.5v-3c-0.1,0-0.2,0-0.3-0.1
		c-0.1,0-0.2-0.1-0.3-0.1L77.9,137.5L77.9,137.5z"/>
	<path class="st0" d="M91.5,137.5h1.7v0.3c-0.1,0.1-0.2,0.1-0.3,0.2c-0.1,0.1-0.2,0.1-0.3,0.1v4.8H92l-2.5-3.9l-0.3-0.6h0l0.1,0.6
		v3.2c0.1,0,0.2,0.1,0.3,0.1c0.1,0.1,0.2,0.1,0.3,0.2v0.3h-1.7v-0.3c0.1-0.1,0.2-0.1,0.3-0.2s0.2-0.1,0.3-0.1v-4.2
		c-0.1,0-0.2-0.1-0.3-0.1s-0.2-0.1-0.2-0.2v-0.3h1.5l2,3.2l0.3,0.7h0l0-0.7v-2.6c-0.1,0-0.2-0.1-0.3-0.1s-0.2-0.1-0.3-0.2
		L91.5,137.5L91.5,137.5z"/>
	<path class="st0" d="M98.7,142.9v-0.3c0.1-0.1,0.2-0.1,0.3-0.1c0.1,0,0.2-0.1,0.3-0.1V138c-0.1,0-0.2-0.1-0.3-0.1
		c-0.1,0-0.2-0.1-0.3-0.1v-0.3h0.8c0.1,0,0.2,0,0.3,0c0.1,0,0.2,0,0.4,0c0.1,0,0.2,0,0.4,0s0.2,0,0.3,0c0.4,0,0.8,0.1,1.1,0.2
		s0.6,0.3,0.8,0.5c0.2,0.2,0.4,0.5,0.5,0.8s0.2,0.7,0.2,1.2s-0.1,0.8-0.2,1.2s-0.3,0.6-0.5,0.9c-0.2,0.2-0.5,0.4-0.8,0.6
		c-0.3,0.1-0.8,0.2-1.2,0.2c-0.1,0-0.1,0-0.2,0c-0.1,0-0.2,0-0.3,0c-0.1,0-0.2,0-0.3,0c-0.1,0-0.2,0-0.3,0L98.7,142.9L98.7,142.9z
		 M100.7,137.9c-0.1,0-0.2,0-0.2,0s-0.2,0-0.2,0v4.5c0,0,0.1,0,0.1,0c0.1,0,0.1,0,0.1,0c0.1,0,0.1,0,0.1,0s0.1,0,0.1,0
		c0.3,0,0.5-0.1,0.7-0.2c0.2-0.1,0.3-0.3,0.5-0.5s0.2-0.5,0.3-0.7s0.1-0.6,0.1-0.9c0-0.3,0-0.6-0.1-0.8c-0.1-0.3-0.2-0.5-0.3-0.7
		s-0.3-0.4-0.5-0.5C101.2,137.9,101,137.9,100.7,137.9L100.7,137.9z"/>
	<path class="st0" d="M110.2,142.9h-1.7v-0.3c0.1-0.1,0.2-0.1,0.2-0.1c0.1,0,0.2-0.1,0.3-0.1l1.8-5h0.5l1.8,5c0.1,0,0.2,0.1,0.3,0.1
		s0.2,0.1,0.2,0.1v0.3h-2.2v-0.3c0.1-0.1,0.2-0.1,0.3-0.1s0.2-0.1,0.3-0.1l-0.4-1.2H110l-0.4,1.2c0.2,0,0.4,0.1,0.6,0.2L110.2,142.9
		L110.2,142.9z M110.2,140.6h1.2l-0.5-1.5l-0.1-0.7h0l-0.2,0.7L110.2,140.6L110.2,140.6z"/>
	<path class="st0" d="M122.2,141.2h0.3c0,0.1,0,0.2,0.1,0.3c0,0.1,0,0.2,0,0.4c0,0.1,0,0.3,0,0.4s0,0.2,0,0.4
		c-0.2,0.1-0.4,0.2-0.6,0.2s-0.5,0.1-0.8,0.1c-0.4,0-0.7-0.1-1.1-0.2c-0.3-0.1-0.6-0.3-0.8-0.5s-0.4-0.5-0.5-0.9s-0.2-0.8-0.2-1.3
		s0.1-0.9,0.2-1.3c0.1-0.4,0.3-0.6,0.5-0.9s0.5-0.4,0.8-0.5s0.6-0.2,0.9-0.2c0.3,0,0.6,0,0.8,0.1s0.4,0.1,0.6,0.2c0,0.1,0,0.2,0,0.3
		c0,0.1,0,0.3,0,0.4s0,0.3-0.1,0.4s0,0.2-0.1,0.3h-0.3l-0.4-1.2c0,0-0.1-0.1-0.2-0.1c-0.1,0-0.2,0-0.3,0c-0.2,0-0.4,0-0.5,0.1
		s-0.3,0.2-0.4,0.4s-0.2,0.4-0.3,0.7c-0.1,0.3-0.1,0.6-0.1,1c0,0.7,0.1,1.3,0.4,1.7c0.3,0.4,0.6,0.6,1.1,0.6c0.1,0,0.2,0,0.3,0
		s0.2-0.1,0.2-0.1L122.2,141.2L122.2,141.2z"/>
	<path class="st0" d="M130.6,142.9h-2.2v-0.3c0.2-0.1,0.4-0.2,0.6-0.2V138c-0.1,0-0.2,0-0.3-0.1s-0.2-0.1-0.3-0.1v-0.3h2.2v0.3
		c-0.1,0.1-0.2,0.1-0.3,0.1s-0.2,0.1-0.3,0.1v4.4c0.1,0,0.2,0.1,0.3,0.1s0.2,0.1,0.3,0.1L130.6,142.9L130.6,142.9z"/>
	<path class="st0" d="M136.2,140.2c0-0.4,0.1-0.8,0.1-1.1c0.1-0.3,0.2-0.6,0.5-0.9c0.2-0.2,0.4-0.4,0.7-0.6c0.3-0.1,0.6-0.2,1-0.2
		s0.7,0.1,1,0.2c0.3,0.1,0.5,0.3,0.7,0.6c0.2,0.2,0.4,0.5,0.4,0.9c0.1,0.3,0.1,0.7,0.1,1.1s-0.1,0.8-0.1,1.1s-0.2,0.6-0.4,0.9
		c-0.2,0.2-0.4,0.4-0.7,0.6c-0.3,0.1-0.6,0.2-1,0.2s-0.7-0.1-1-0.2c-0.3-0.1-0.5-0.3-0.7-0.6c-0.2-0.2-0.4-0.5-0.5-0.9
		S136.2,140.6,136.2,140.2z M137.4,140.2c0,0.3,0,0.6,0.1,0.9s0.1,0.5,0.2,0.7s0.2,0.4,0.4,0.5s0.3,0.2,0.6,0.2
		c0.2,0,0.4-0.1,0.5-0.2s0.2-0.3,0.3-0.5c0.1-0.2,0.1-0.4,0.2-0.7c0-0.3,0.1-0.6,0.1-0.9s0-0.6-0.1-0.9c0-0.3-0.1-0.5-0.2-0.7
		s-0.2-0.4-0.4-0.5s-0.4-0.2-0.6-0.2s-0.4,0.1-0.5,0.2c-0.1,0.1-0.3,0.3-0.4,0.5s-0.1,0.4-0.2,0.7
		C137.4,139.5,137.4,139.8,137.4,140.2L137.4,140.2z M138.9,135.9c0.1,0,0.2,0,0.3,0c0.1,0,0.2,0,0.3,0.1c0.1,0,0.2,0.1,0.2,0.1
		s0.1,0.1,0.1,0.1v0.1l-1.7,0.7l-0.2-0.2L138.9,135.9L138.9,135.9z"/>
	<path class="st0" d="M149.9,137.5h1.7v0.3c-0.1,0.1-0.2,0.1-0.3,0.2c-0.1,0.1-0.2,0.1-0.3,0.1v4.8h-0.6l-2.5-3.9l-0.3-0.6h0
		l0.1,0.6v3.2c0.1,0,0.2,0.1,0.3,0.1c0.1,0.1,0.2,0.1,0.3,0.2v0.3h-1.7v-0.3c0.1-0.1,0.2-0.1,0.3-0.2s0.2-0.1,0.3-0.1v-4.2
		c-0.1,0-0.2-0.1-0.3-0.1s-0.2-0.1-0.2-0.2v-0.3h1.5l2,3.2l0.3,0.7h0l0-0.7v-2.6c-0.1,0-0.2-0.1-0.3-0.1s-0.2-0.1-0.3-0.2
		L149.9,137.5L149.9,137.5z"/>
</g>
<g>
	<path class="st0" d="M5,122.7c0.2,0.1,0.5,0.1,0.7,0.2c0.2,0.1,0.4,0.2,0.6,0.3v0.7H1.4v-0.7c0.2-0.2,0.4-0.3,0.7-0.3
		c0.2-0.1,0.4-0.1,0.6-0.2v-10.3c-0.5-0.1-1-0.3-1.3-0.5v-0.7h1.7c0.2,0,0.5,0,0.7,0s0.5,0,0.8-0.1c0.3,0,0.6,0,0.9-0.1
		c0.3,0,0.6,0,0.9,0c0.6,0,1.1,0.1,1.6,0.2s0.9,0.4,1.3,0.7s0.6,0.7,0.8,1.1s0.3,1,0.3,1.6c0,0.9-0.2,1.6-0.6,2.2s-0.9,1-1.5,1.3
		c0.4,0.8,0.9,1.5,1.3,2.3s1,1.6,1.5,2.3l0.8,0.6v0.6H9.3l-0.7-0.6c-0.5-0.7-0.9-1.4-1.3-2.3s-0.7-1.7-1-2.6H5.1L5,122.7L5,122.7z
		 M5.8,112.3c-0.3,0-0.6,0-0.8,0.1v5.1H6c0.5,0,1-0.2,1.4-0.7s0.6-1.1,0.6-2c0-0.4-0.1-0.8-0.2-1.2c-0.1-0.3-0.2-0.6-0.4-0.8
		c-0.2-0.2-0.4-0.4-0.7-0.4C6.4,112.3,6.1,112.3,5.8,112.3L5.8,112.3z"/>
	<path class="st0" d="M28.1,124h-4.9v-0.7c0.4-0.3,0.9-0.4,1.3-0.5v-10.3c-0.2,0-0.4-0.1-0.7-0.2s-0.4-0.2-0.6-0.3v-0.7h4.9v0.7
		c-0.2,0.1-0.4,0.2-0.6,0.3c-0.2,0.1-0.4,0.2-0.6,0.2v10.3c0.2,0.1,0.4,0.1,0.6,0.2c0.2,0.1,0.4,0.2,0.6,0.3L28.1,124L28.1,124z
		 M26.2,107.6c0.2,0,0.4,0,0.6,0s0.4,0.1,0.6,0.2c0.2,0.1,0.4,0.1,0.5,0.2s0.3,0.2,0.3,0.3v0.4l-3.9,1.8L24,110
		C24,110,26.2,107.6,26.2,107.6z"/>
	<path class="st0" d="M39.9,117.6c0-0.9,0.1-1.8,0.3-2.6s0.6-1.5,1-2.1s1-1.1,1.7-1.4s1.4-0.5,2.3-0.5s1.6,0.2,2.3,0.5
		c0.7,0.3,1.2,0.8,1.7,1.4c0.5,0.6,0.8,1.3,1,2.1s0.3,1.7,0.3,2.6s-0.1,1.8-0.3,2.6s-0.6,1.5-1,2.1s-1,1.1-1.7,1.4
		c-0.7,0.3-1.4,0.5-2.3,0.5s-1.6-0.2-2.3-0.5s-1.2-0.8-1.7-1.4c-0.5-0.6-0.8-1.3-1-2.1C40,119.4,39.9,118.5,39.9,117.6z M42.6,117.6
		c0,0.8,0,1.5,0.2,2.2c0.1,0.7,0.3,1.2,0.5,1.7c0.2,0.5,0.5,0.8,0.9,1.1s0.8,0.4,1.3,0.4c0.5,0,0.8-0.1,1.2-0.4s0.6-0.7,0.8-1.1
		c0.2-0.5,0.3-1.1,0.4-1.7c0.1-0.7,0.1-1.4,0.1-2.2s0-1.5-0.2-2.2c-0.1-0.7-0.3-1.2-0.5-1.7c-0.2-0.5-0.5-0.9-0.8-1.1
		s-0.8-0.4-1.3-0.4s-0.9,0.1-1.2,0.4c-0.3,0.3-0.6,0.7-0.8,1.1s-0.3,1.1-0.4,1.7C42.7,116.1,42.6,116.8,42.6,117.6L42.6,117.6z"/>
	<path class="st0" d="M80.7,124h-3.9v-0.7c0.2-0.1,0.3-0.2,0.5-0.3s0.4-0.2,0.6-0.2L82,111h1.2l3.9,11.7c0.2,0.1,0.4,0.1,0.6,0.2
		s0.4,0.2,0.6,0.3v0.7h-4.9v-0.7c0.2-0.1,0.4-0.2,0.7-0.3c0.2-0.1,0.4-0.2,0.7-0.2l-0.9-2.9h-3.5l-0.9,2.9c0.5,0.1,0.9,0.2,1.4,0.5
		L80.7,124L80.7,124z M80.7,118.7h2.8l-1-3.5l-0.3-1.6h0l-0.3,1.6L80.7,118.7L80.7,118.7z"/>
	<path class="st0" d="M103,122.7c0.2,0.1,0.5,0.1,0.7,0.2c0.2,0.1,0.4,0.2,0.6,0.3v0.7h-4.8v-0.7c0.2-0.2,0.4-0.3,0.7-0.3
		c0.2-0.1,0.4-0.1,0.6-0.2v-10.3c-0.5-0.1-1-0.3-1.3-0.5v-0.7h1.7c0.2,0,0.4,0,0.7,0s0.6,0,0.8-0.1c0.3,0,0.6,0,0.9-0.1
		c0.3,0,0.6,0,0.9,0c0.6,0,1.1,0.1,1.6,0.2s0.9,0.4,1.3,0.7s0.6,0.7,0.8,1.1s0.3,1,0.3,1.6c0,0.9-0.2,1.6-0.6,2.2s-0.9,1-1.5,1.3
		c0.4,0.8,0.9,1.5,1.3,2.3s1,1.6,1.5,2.3l0.8,0.6v0.6h-2.6l-0.7-0.6c-0.5-0.7-0.9-1.4-1.3-2.3s-0.7-1.7-1-2.6H103L103,122.7
		L103,122.7z M103.8,112.3c-0.3,0-0.6,0-0.8,0.1v5.1h0.9c0.5,0,1-0.2,1.4-0.7s0.6-1.1,0.6-2c0-0.4-0.1-0.8-0.2-1.2
		c-0.1-0.3-0.2-0.6-0.4-0.8c-0.2-0.2-0.4-0.4-0.7-0.4C104.4,112.3,104.1,112.3,103.8,112.3L103.8,112.3z"/>
	<path class="st0" d="M124.7,122.7c0.2,0.1,0.5,0.1,0.7,0.2c0.2,0.1,0.4,0.2,0.6,0.3v0.7H121v-0.7c0.2-0.2,0.4-0.3,0.7-0.3
		c0.2-0.1,0.4-0.1,0.6-0.2v-10.3c-0.5-0.1-1-0.3-1.3-0.5v-0.7h1.7c0.2,0,0.4,0,0.7,0s0.6,0,0.8-0.1c0.3,0,0.6,0,0.9-0.1
		c0.3,0,0.6,0,0.9,0c0.6,0,1.1,0.1,1.6,0.2s0.9,0.4,1.3,0.7s0.6,0.7,0.8,1.1s0.3,1,0.3,1.6c0,0.9-0.2,1.6-0.6,2.2s-0.9,1-1.5,1.3
		c0.4,0.8,0.9,1.5,1.3,2.3s1,1.6,1.5,2.3l0.8,0.6v0.6h-2.6l-0.7-0.6c-0.5-0.7-0.9-1.4-1.3-2.3s-0.7-1.7-1-2.6h-1.3L124.7,122.7
		L124.7,122.7z M125.5,112.3c-0.3,0-0.6,0-0.8,0.1v5.1h0.9c0.5,0,1-0.2,1.4-0.7s0.6-1.1,0.6-2c0-0.4-0.1-0.8-0.2-1.2
		c-0.1-0.3-0.2-0.6-0.4-0.8c-0.2-0.2-0.4-0.4-0.7-0.4C126,112.3,125.8,112.3,125.5,112.3L125.5,112.3z"/>
	<path class="st0" d="M142.4,117.6c0-0.9,0.1-1.8,0.4-2.6c0.2-0.8,0.6-1.5,1-2.1s1-1.1,1.7-1.4s1.4-0.5,2.3-0.5s1.6,0.2,2.3,0.5
		c0.7,0.3,1.2,0.8,1.7,1.4c0.4,0.6,0.8,1.3,1,2.1s0.4,1.7,0.4,2.6s-0.1,1.8-0.4,2.6c-0.2,0.8-0.6,1.5-1,2.1s-1,1.1-1.7,1.4
		c-0.7,0.3-1.4,0.5-2.3,0.5s-1.6-0.2-2.3-0.5s-1.2-0.8-1.7-1.4c-0.4-0.6-0.8-1.3-1-2.1C142.5,119.4,142.4,118.5,142.4,117.6z
		 M145.1,117.6c0,0.8,0.1,1.5,0.2,2.2c0.1,0.7,0.3,1.2,0.5,1.7c0.2,0.5,0.5,0.8,0.9,1.1s0.8,0.4,1.3,0.4c0.4,0,0.8-0.1,1.1-0.4
		s0.6-0.7,0.8-1.1c0.2-0.5,0.3-1.1,0.4-1.7c0.1-0.7,0.1-1.4,0.1-2.2s-0.1-1.5-0.1-2.2c-0.1-0.7-0.3-1.2-0.5-1.7
		c-0.2-0.5-0.5-0.9-0.9-1.1s-0.8-0.4-1.3-0.4s-0.9,0.1-1.2,0.4c-0.3,0.3-0.6,0.7-0.8,1.1s-0.3,1.1-0.4,1.7
		C145.1,116.1,145.1,116.8,145.1,117.6L145.1,117.6z"/>
	<path class="st0" d="M172.1,111.2h3.9v0.7c-0.2,0.2-0.4,0.3-0.7,0.5c-0.2,0.1-0.5,0.2-0.7,0.3v11.4h-1.3l-5.6-9.3l-0.6-1.4H167
		l0.1,1.5v7.6c0.2,0.1,0.4,0.2,0.7,0.3s0.5,0.3,0.6,0.4v0.7h-3.9v-0.7c0.2-0.2,0.4-0.3,0.6-0.4c0.2-0.1,0.5-0.2,0.7-0.3v-9.9
		c-0.2-0.1-0.4-0.2-0.6-0.3s-0.4-0.2-0.6-0.4v-0.7h3.4l4.5,7.6l0.7,1.6h0.1l-0.1-1.6v-6.1c-0.2-0.1-0.5-0.2-0.7-0.3
		s-0.4-0.3-0.6-0.4L172.1,111.2L172.1,111.2z"/>
	<path class="st0" d="M194.9,124h-5.4v-0.7c0.2-0.1,0.4-0.2,0.7-0.3s0.5-0.2,0.8-0.2v-10.3h-1.8l-1,3.1h-0.6c0-0.2-0.1-0.6-0.1-0.9
		s-0.1-0.8-0.1-1.2s-0.1-0.8-0.1-1.2s0-0.7,0-1h10c0,0.3,0,0.6,0,1s-0.1,0.8-0.1,1.2s-0.1,0.8-0.1,1.2c0,0.4-0.1,0.7-0.1,0.9h-0.6
		l-1-3.1h-1.8v10.3c0.3,0.1,0.5,0.1,0.8,0.2s0.5,0.2,0.7,0.3L194.9,124L194.9,124z"/>
	<path class="st0" d="M216.8,111.2c0,0.6-0.1,1.1-0.1,1.7s-0.1,1.1-0.2,1.6h-0.6l-0.7-2.2h-2.9v4.5h1.9l0.7-1.4h0.5
		c0.1,0.6,0.1,1.3,0.1,2s0,1.4-0.1,2h-0.5l-0.7-1.4h-1.9v4.7h3.1l0.8-2.3h0.6c0,0.2,0.1,0.5,0.1,0.8c0,0.3,0.1,0.6,0.1,0.9
		c0,0.3,0.1,0.6,0.1,0.9c0,0.3,0,0.6,0,0.9h-8.5v-0.7c0.2-0.1,0.4-0.2,0.6-0.3s0.4-0.2,0.7-0.2v-10.3c-0.2-0.1-0.4-0.1-0.7-0.2
		s-0.4-0.2-0.6-0.3v-0.7L216.8,111.2L216.8,111.2z"/>
</g>
<g>
	<g>
		<path class="st0" d="M75.3,71.7c-4.4-4.4-4.4-11.5,0-15.9c4.4-4.4,11.5-4.4,15.9,0c0.7,0.7,1.3,1.4,1.7,2.2l0,0
			c3.8,6.6,5.9,13.9,6.2,21.3c-7.3-0.2-14.5-2.1-21.1-5.7l0,0C77,73.3,76.1,72.6,75.3,71.7L75.3,71.7z"/>
		<path class="st0" d="M75.4,55.9c4.4-4.4,11.5-4.4,15.9,0c0.7,0.7,1.3,1.4,1.7,2.2l0,0c3.8,6.6,5.9,13.9,6.2,21.3
			c-7.3-0.2-14.5-2.1-21.1-5.7l0,0c-1-0.5-1.9-1.2-2.7-2.1C71,67.4,71,60.3,75.4,55.9L75.4,55.9z"/>
	</g>
	<path class="st0" d="M126.6,12.5c0,0-1.1-0.5-4.9-0.9c-3.6-0.4-4.7,0.2-4.7,0.2c-0.4,1.6,0.5,6.2,1.2,9.3s1.4,4.9,1.3,4.9
		c-1.6,0.6-2.4,1.2-4.3,1.2c-1,0-2-0.1-2.9-0.4l0,0c-3.1-0.8-5.8-1.8-8.6-3.2c0,0,1.2-3.7-0.7-7.9c-1.7-3.6-4.5-5.1-4.5-5.1
		c4.1-2.7,8.4-4.9,13.2-6.3l0,0c1.1-0.3,2.3-0.5,3.5-0.5C120.9,3.9,125.5,7.2,126.6,12.5L126.6,12.5z"/>
	<path class="st0" d="M75.6,29.1c0,0-0.3,1.1-0.7,4.8c-0.4,3.6-0.2,3.9-0.2,3.9c1.6,0.4,5.8-0.1,8.8-0.8s4.8-1.4,4.9-1.3
		c0.6,1.6,1.2,3,1.2,4.9c0,1-0.1,2-0.4,2.9h0c-0.8,3.1-1.7,5.7-3.1,8.5c0,0-3.8-1.1-8,0.8c-3.7,1.7-5.1,4.5-5.1,4.5
		c-2.7-4.1-4.9-8.4-6.3-13.2l0,0c-0.3-1.1-0.5-2.3-0.5-3.5C66.3,34.9,70.3,30.2,75.6,29.1L75.6,29.1z"/>
	<path class="st0" d="M142.5,20.8c4.4,4.4,4.4,11.6,0,16.1c-4.4,4.4-11.6,4.4-16.1,0c-0.7-0.7-1.3-1.5-1.8-2.3l0,0
		c-3.9-6.7-5.9-14.1-6.3-21.6c7.4,0.2,14.7,2.1,21.4,5.7l0,0C140.8,19.2,141.7,19.9,142.5,20.8L142.5,20.8z"/>
	<path class="st0" d="M99.8,12.6c4.5,4.5,4.5,11.9,0,16.4c-0.7,0.7-1.5,1.3-2.3,1.8l0,0c-6.8,4-14.5,5.6-21.8,6.2
		c0.4-10.4,1.8-14.8,5.6-21.7l0,0c0.5-1,1.3-1.9,2.1-2.8C87.9,8.1,95.3,8.1,99.8,12.6L99.8,12.6z"/>
	<path class="st0" d="M91.2,79.9c0,0,1.1,0.4,4.8,0.8c3.6,0.4,4.1-0.2,4.1-0.2c0.4-1.6-0.2-5.9-0.9-8.9s-1.4-4.8-1.3-4.9
		c1.6-0.6,2.9-1.1,4.7-1.1c1,0,2,0.1,2.9,0.4l0,0c3.1,0.8,5.8,1.8,8.6,3.2c0,0-1.2,3.7,0.7,7.9c1.7,3.7,4.3,5.4,4.3,5.4
		c-4.1,2.7-8.2,4.5-13,5.9l0,0c-1.1,0.3-2.3,0.5-3.5,0.5C97,88.9,92.3,85.2,91.2,79.9L91.2,79.9z"/>
	<path class="st0" d="M142.8,63.7c0,0,0.3-1.1,0.7-4.8c0.4-3.6-0.2-3.8-0.2-3.8c-1.6-0.4-5.4,0.1-8.4,0.8s-4.9,1.4-4.9,1.3
		c-0.6-1.6-1.2-3-1.2-4.9c0-1,0.1-2,0.4-2.9h0c0.8-3.1,1.8-5.4,3.2-8.2c0,0,3.7,0.9,7.9-1c3.6-1.7,5.1-4.5,5.1-4.5
		c2.7,4.1,4.9,8.4,6.3,13.2l0,0c0.3,1.1,0.5,2.3,0.5,3.5C152.1,57.9,148.1,62.6,142.8,63.7L142.8,63.7z"/>
	<path class="st0" d="M118.4,80.1c-4.5-4.5-4.5-11.8,0-16.3c0.7-0.7,1.5-1.3,2.3-1.8l0,0c6.8-3.9,14.4-5.5,21.7-6.2
		c-0.4,10.3-1.8,14.7-5.5,21.5l0,0c-0.5,1-1.3,1.9-2.1,2.8C130.2,84.6,122.9,84.6,118.4,80.1L118.4,80.1z"/>
</g>
<rect x="155.6" y="139.3" class="st0" width="61.2" height="1.1"/>
<rect x="1.4" y="139.3" class="st0" width="61.2" height="1.1"/>
</svg>
